<svg width="100" height="100" viewBox="0 0 100 100" fill="none" xmlns="http://www.w3.org/2000/svg">
<path d="M100 49.9999C100 63.8071 94.4036 76.3071 85.3553 85.3553C76.3071 94.4035 63.8071 99.9999 50 99.9999C36.1929 99.9999 23.6929 94.4035 14.6447 85.3553C5.59644 76.3071 0 63.8071 0 49.9999C0 36.1928 5.59644 23.6928 14.6447 14.6446C23.6929 5.59638 36.1929 -6.10352e-05 50 -6.10352e-05C63.8071 -6.10352e-05 76.3071 5.59638 85.3553 14.6446C94.4036 23.6928 100 36.1928 100 49.9999Z" fill="#E5E5E5"/>
<path d="M99.5 49.9999C99.5 63.6691 93.9601 76.0434 85.0018 85.0017C76.0435 93.96 63.6692 99.4999 50 99.4999C36.3308 99.4999 23.9565 93.96 14.9982 85.0017C6.03993 76.0434 0.5 63.6691 0.5 49.9999C0.5 36.3308 6.03993 23.9564 14.9982 14.9982C23.9565 6.03987 36.3308 0.499939 50 0.499939C63.6692 0.499939 76.0435 6.03987 85.0018 14.9982C93.9601 23.9564 99.5 36.3308 99.5 49.9999Z" stroke="black" stroke-opacity="0.3"/>
</svg>
